<mxfile host="app.diagrams.net" modified="2021-02-20T02:38:32.230Z" agent="5.0 (Windows)" etag="Yr4UhQRMxYEBD7PwWhdl" version="14.4.2" type="github">
  <diagram id="dDZ2D7s4tO_t5auYRhyF" name="Page-1">
    <mxGraphModel dx="1554" dy="558" grid="1" gridSize="10" guides="1" tooltips="1" connect="1" arrows="1" fold="1" page="1" pageScale="1" pageWidth="850" pageHeight="1100" math="0" shadow="0">
      <root>
        <mxCell id="0" />
        <mxCell id="1" parent="0" />
        <mxCell id="FkbiFfi5gfxvRpC5khOy-5" value="" style="whiteSpace=wrap;html=1;aspect=fixed;fillColor=#fff2cc;strokeColor=#d6b656;" parent="1" vertex="1">
          <mxGeometry x="360" y="100" width="390" height="390" as="geometry" />
        </mxCell>
        <mxCell id="FkbiFfi5gfxvRpC5khOy-1" value="Light Control Service" style="shape=image;html=1;verticalAlign=top;verticalLabelPosition=bottom;labelBackgroundColor=#ffffff;imageAspect=0;aspect=fixed;image=https://cdn2.iconfinder.com/data/icons/amazon-aws-stencils/100/SDKs_copy_nodeJS-128.png;fillColor=#fff2cc;strokeColor=#d6b656;" parent="1" vertex="1">
          <mxGeometry x="560" y="224" width="128" height="128" as="geometry" />
        </mxCell>
        <mxCell id="r8qZKDxEqpIi0R-0CELh-17" style="edgeStyle=orthogonalEdgeStyle;rounded=0;orthogonalLoop=1;jettySize=auto;html=1;" edge="1" parent="1" source="FkbiFfi5gfxvRpC5khOy-2" target="FkbiFfi5gfxvRpC5khOy-3">
          <mxGeometry relative="1" as="geometry" />
        </mxCell>
        <mxCell id="FkbiFfi5gfxvRpC5khOy-2" value="Auth Service" style="shape=image;html=1;verticalAlign=top;verticalLabelPosition=bottom;labelBackgroundColor=#ffffff;imageAspect=0;aspect=fixed;image=https://cdn2.iconfinder.com/data/icons/amazon-aws-stencils/100/SDKs_copy_nodeJS-128.png;fillColor=#fff2cc;strokeColor=#d6b656;" parent="1" vertex="1">
          <mxGeometry x="580" y="100" width="128" height="128" as="geometry" />
        </mxCell>
        <mxCell id="FkbiFfi5gfxvRpC5khOy-12" style="rounded=0;orthogonalLoop=1;jettySize=auto;html=1;exitX=0;exitY=1;exitDx=0;exitDy=0;entryX=0.994;entryY=0.656;entryDx=0;entryDy=0;entryPerimeter=0;startArrow=classic;startFill=1;" parent="1" source="FkbiFfi5gfxvRpC5khOy-3" target="FkbiFfi5gfxvRpC5khOy-6" edge="1">
          <mxGeometry relative="1" as="geometry" />
        </mxCell>
        <mxCell id="FkbiFfi5gfxvRpC5khOy-13" value="&lt;div&gt;Need Specific&lt;/div&gt;&lt;div&gt;Bus&lt;br&gt;&lt;/div&gt;" style="edgeLabel;html=1;align=center;verticalAlign=middle;resizable=0;points=[];" parent="FkbiFfi5gfxvRpC5khOy-12" vertex="1" connectable="0">
          <mxGeometry x="-0.159" y="-2" relative="1" as="geometry">
            <mxPoint as="offset" />
          </mxGeometry>
        </mxCell>
        <mxCell id="r8qZKDxEqpIi0R-0CELh-20" style="edgeStyle=orthogonalEdgeStyle;rounded=0;orthogonalLoop=1;jettySize=auto;html=1;entryX=0.375;entryY=1;entryDx=0;entryDy=0;" edge="1" parent="1" source="FkbiFfi5gfxvRpC5khOy-3" target="r8qZKDxEqpIi0R-0CELh-19">
          <mxGeometry relative="1" as="geometry">
            <Array as="points">
              <mxPoint x="410" y="290" />
            </Array>
          </mxGeometry>
        </mxCell>
        <mxCell id="FkbiFfi5gfxvRpC5khOy-3" value="&lt;div&gt;Python Flask&lt;/div&gt;&lt;div&gt;Service&lt;br&gt;&lt;/div&gt;" style="shape=image;html=1;verticalAlign=top;verticalLabelPosition=bottom;labelBackgroundColor=#ffffff;imageAspect=0;aspect=fixed;image=https://cdn4.iconfinder.com/data/icons/essential-app-1/16/science-flask-chemistry-experiment-lab-128.png;fillColor=#fff2cc;strokeColor=#d6b656;" parent="1" vertex="1">
          <mxGeometry x="460" y="248" width="80" height="80" as="geometry" />
        </mxCell>
        <mxCell id="FkbiFfi5gfxvRpC5khOy-4" value="" style="shape=image;html=1;verticalAlign=top;verticalLabelPosition=bottom;labelBackgroundColor=#ffffff;imageAspect=0;aspect=fixed;image=https://cdn3.iconfinder.com/data/icons/logos-and-brands-adobe/512/272_Raspberry_Pi-128.png;fillColor=#fff2cc;strokeColor=#d6b656;" parent="1" vertex="1">
          <mxGeometry x="400" y="90" width="90" height="90" as="geometry" />
        </mxCell>
        <mxCell id="FkbiFfi5gfxvRpC5khOy-6" value="Fire Bus Bridge" style="dashed=0;outlineConnect=0;html=1;align=center;labelPosition=center;verticalLabelPosition=bottom;verticalAlign=top;shape=mxgraph.weblogos.arduino;fillColor=#36868D;strokeColor=none" parent="1" vertex="1">
          <mxGeometry x="190" y="320" width="67.4" height="32" as="geometry" />
        </mxCell>
        <mxCell id="FkbiFfi5gfxvRpC5khOy-24" style="edgeStyle=none;rounded=0;orthogonalLoop=1;jettySize=auto;html=1;entryX=0.968;entryY=0.45;entryDx=0;entryDy=0;entryPerimeter=0;startArrow=classic;startFill=1;" parent="1" source="FkbiFfi5gfxvRpC5khOy-7" target="FkbiFfi5gfxvRpC5khOy-15" edge="1">
          <mxGeometry relative="1" as="geometry" />
        </mxCell>
        <mxCell id="FkbiFfi5gfxvRpC5khOy-7" value="Light Bus Bridge" style="dashed=0;outlineConnect=0;html=1;align=center;labelPosition=center;verticalLabelPosition=bottom;verticalAlign=top;shape=mxgraph.weblogos.arduino;fillColor=#36868D;strokeColor=none" parent="1" vertex="1">
          <mxGeometry x="190" y="230" width="67.4" height="32" as="geometry" />
        </mxCell>
        <mxCell id="r8qZKDxEqpIi0R-0CELh-18" style="edgeStyle=orthogonalEdgeStyle;rounded=0;orthogonalLoop=1;jettySize=auto;html=1;entryX=0.5;entryY=1;entryDx=0;entryDy=0;" edge="1" parent="1" source="FkbiFfi5gfxvRpC5khOy-9" target="FkbiFfi5gfxvRpC5khOy-3">
          <mxGeometry relative="1" as="geometry" />
        </mxCell>
        <mxCell id="FkbiFfi5gfxvRpC5khOy-9" value="&lt;br&gt;Fire System Servicel" style="shape=image;html=1;verticalAlign=top;verticalLabelPosition=bottom;labelBackgroundColor=#ffffff;imageAspect=0;aspect=fixed;image=https://cdn2.iconfinder.com/data/icons/amazon-aws-stencils/100/SDKs_copy_nodeJS-128.png;fillColor=#fff2cc;strokeColor=#d6b656;" parent="1" vertex="1">
          <mxGeometry x="530" y="370" width="128" height="128" as="geometry" />
        </mxCell>
        <mxCell id="FkbiFfi5gfxvRpC5khOy-11" value="" style="endArrow=classic;html=1;startArrow=classic;startFill=1;entryX=0.5;entryY=1;entryDx=0;entryDy=0;" parent="1" source="FkbiFfi5gfxvRpC5khOy-7" target="r8qZKDxEqpIi0R-0CELh-19" edge="1">
          <mxGeometry width="50" height="50" relative="1" as="geometry">
            <mxPoint x="400" y="340" as="sourcePoint" />
            <mxPoint x="430" y="260" as="targetPoint" />
            <Array as="points">
              <mxPoint x="380" y="248" />
            </Array>
          </mxGeometry>
        </mxCell>
        <mxCell id="FkbiFfi5gfxvRpC5khOy-14" value="&lt;div&gt;Need Specifi&lt;/div&gt;&lt;div&gt;Bus&lt;br&gt;&lt;/div&gt;" style="edgeLabel;html=1;align=center;verticalAlign=middle;resizable=0;points=[];" parent="FkbiFfi5gfxvRpC5khOy-11" vertex="1" connectable="0">
          <mxGeometry x="0.1859" y="2" relative="1" as="geometry">
            <mxPoint as="offset" />
          </mxGeometry>
        </mxCell>
        <mxCell id="FkbiFfi5gfxvRpC5khOy-15" value="CAN Bus Lights" style="html=1;fillColor=#CCCCCC;strokeColor=#6881B3;gradientColor=none;gradientDirection=north;strokeWidth=2;shape=mxgraph.networks.bus;gradientColor=none;gradientDirection=north;fontColor=#ffffff;perimeter=backbonePerimeter;backboneSize=20;" parent="1" vertex="1">
          <mxGeometry x="-100" y="236" width="250" height="20" as="geometry" />
        </mxCell>
        <mxCell id="FkbiFfi5gfxvRpC5khOy-16" value="" style="strokeColor=#6881B3;edgeStyle=none;rounded=0;endArrow=none;html=1;strokeWidth=2;" parent="1" target="FkbiFfi5gfxvRpC5khOy-15" edge="1">
          <mxGeometry relative="1" as="geometry">
            <mxPoint x="-60" y="176" as="sourcePoint" />
          </mxGeometry>
        </mxCell>
        <mxCell id="FkbiFfi5gfxvRpC5khOy-17" value="" style="strokeColor=#6881B3;edgeStyle=none;rounded=0;endArrow=none;html=1;strokeWidth=2;" parent="1" target="FkbiFfi5gfxvRpC5khOy-15" edge="1">
          <mxGeometry relative="1" as="geometry">
            <mxPoint y="176" as="sourcePoint" />
          </mxGeometry>
        </mxCell>
        <mxCell id="FkbiFfi5gfxvRpC5khOy-18" value="" style="strokeColor=#6881B3;edgeStyle=none;rounded=0;endArrow=none;html=1;strokeWidth=2;" parent="1" target="FkbiFfi5gfxvRpC5khOy-15" edge="1">
          <mxGeometry relative="1" as="geometry">
            <mxPoint x="60" y="176" as="sourcePoint" />
          </mxGeometry>
        </mxCell>
        <mxCell id="FkbiFfi5gfxvRpC5khOy-19" value="" style="strokeColor=#6881B3;edgeStyle=none;rounded=0;endArrow=none;html=1;strokeWidth=2;" parent="1" target="FkbiFfi5gfxvRpC5khOy-15" edge="1">
          <mxGeometry relative="1" as="geometry">
            <mxPoint x="120" y="176" as="sourcePoint" />
            <Array as="points">
              <mxPoint x="120" y="210" />
            </Array>
          </mxGeometry>
        </mxCell>
        <mxCell id="FkbiFfi5gfxvRpC5khOy-20" value="" style="strokeColor=#6881B3;edgeStyle=none;rounded=0;endArrow=none;html=1;strokeWidth=2;" parent="1" target="FkbiFfi5gfxvRpC5khOy-15" edge="1">
          <mxGeometry relative="1" as="geometry">
            <mxPoint x="-60" y="316" as="sourcePoint" />
          </mxGeometry>
        </mxCell>
        <mxCell id="FkbiFfi5gfxvRpC5khOy-21" value="" style="strokeColor=#6881B3;edgeStyle=none;rounded=0;endArrow=none;html=1;strokeWidth=2;" parent="1" target="FkbiFfi5gfxvRpC5khOy-15" edge="1">
          <mxGeometry relative="1" as="geometry">
            <mxPoint y="316" as="sourcePoint" />
          </mxGeometry>
        </mxCell>
        <mxCell id="FkbiFfi5gfxvRpC5khOy-22" value="" style="strokeColor=#6881B3;edgeStyle=none;rounded=0;endArrow=none;html=1;strokeWidth=2;" parent="1" source="FkbiFfi5gfxvRpC5khOy-26" target="FkbiFfi5gfxvRpC5khOy-15" edge="1">
          <mxGeometry relative="1" as="geometry">
            <mxPoint x="60" y="316" as="sourcePoint" />
          </mxGeometry>
        </mxCell>
        <mxCell id="FkbiFfi5gfxvRpC5khOy-23" value="" style="strokeColor=#6881B3;edgeStyle=none;rounded=0;endArrow=none;html=1;strokeWidth=2;" parent="1" target="FkbiFfi5gfxvRpC5khOy-15" edge="1">
          <mxGeometry relative="1" as="geometry">
            <mxPoint x="120" y="316" as="sourcePoint" />
          </mxGeometry>
        </mxCell>
        <mxCell id="FkbiFfi5gfxvRpC5khOy-25" value="" style="dashed=0;outlineConnect=0;html=1;align=center;labelPosition=center;verticalLabelPosition=bottom;verticalAlign=top;shape=mxgraph.weblogos.arduino;fillColor=#36868D;strokeColor=none;rotation=90;" parent="1" vertex="1">
          <mxGeometry x="82.6" y="130" width="67.4" height="32" as="geometry" />
        </mxCell>
        <mxCell id="r8qZKDxEqpIi0R-0CELh-8" style="edgeStyle=orthogonalEdgeStyle;rounded=0;orthogonalLoop=1;jettySize=auto;html=1;" edge="1" parent="1" source="FkbiFfi5gfxvRpC5khOy-26" target="r8qZKDxEqpIi0R-0CELh-1">
          <mxGeometry relative="1" as="geometry" />
        </mxCell>
        <mxCell id="FkbiFfi5gfxvRpC5khOy-26" value="" style="dashed=0;outlineConnect=0;html=1;align=center;labelPosition=center;verticalLabelPosition=bottom;verticalAlign=top;shape=mxgraph.weblogos.arduino;fillColor=#36868D;strokeColor=none;rotation=90;" parent="1" vertex="1">
          <mxGeometry x="26.299999999999997" y="300" width="67.4" height="32" as="geometry" />
        </mxCell>
        <mxCell id="r8qZKDxEqpIi0R-0CELh-9" style="edgeStyle=orthogonalEdgeStyle;rounded=0;orthogonalLoop=1;jettySize=auto;html=1;entryX=0;entryY=0.5;entryDx=0;entryDy=0;" edge="1" parent="1" source="r8qZKDxEqpIi0R-0CELh-1" target="r8qZKDxEqpIi0R-0CELh-2">
          <mxGeometry relative="1" as="geometry" />
        </mxCell>
        <mxCell id="r8qZKDxEqpIi0R-0CELh-1" value="" style="ellipse;whiteSpace=wrap;html=1;aspect=fixed;" vertex="1" parent="1">
          <mxGeometry x="-70" y="460" width="80" height="80" as="geometry" />
        </mxCell>
        <mxCell id="r8qZKDxEqpIi0R-0CELh-3" value="" style="ellipse;whiteSpace=wrap;html=1;aspect=fixed;" vertex="1" parent="1">
          <mxGeometry x="250" y="460" width="80" height="80" as="geometry" />
        </mxCell>
        <mxCell id="r8qZKDxEqpIi0R-0CELh-10" style="edgeStyle=orthogonalEdgeStyle;rounded=0;orthogonalLoop=1;jettySize=auto;html=1;entryX=0;entryY=0.5;entryDx=0;entryDy=0;" edge="1" parent="1" source="r8qZKDxEqpIi0R-0CELh-2" target="r8qZKDxEqpIi0R-0CELh-3">
          <mxGeometry relative="1" as="geometry" />
        </mxCell>
        <mxCell id="r8qZKDxEqpIi0R-0CELh-2" value="" style="ellipse;whiteSpace=wrap;html=1;aspect=fixed;" vertex="1" parent="1">
          <mxGeometry x="82.6" y="460" width="80" height="80" as="geometry" />
        </mxCell>
        <mxCell id="r8qZKDxEqpIi0R-0CELh-12" style="edgeStyle=orthogonalEdgeStyle;rounded=0;orthogonalLoop=1;jettySize=auto;html=1;" edge="1" parent="1" source="r8qZKDxEqpIi0R-0CELh-11" target="FkbiFfi5gfxvRpC5khOy-25">
          <mxGeometry relative="1" as="geometry" />
        </mxCell>
        <mxCell id="r8qZKDxEqpIi0R-0CELh-11" value="" style="shape=parallelogram;perimeter=parallelogramPerimeter;whiteSpace=wrap;html=1;fixedSize=1;" vertex="1" parent="1">
          <mxGeometry x="-35" y="30" width="120" height="60" as="geometry" />
        </mxCell>
        <mxCell id="r8qZKDxEqpIi0R-0CELh-13" value="" style="ellipse;whiteSpace=wrap;html=1;" vertex="1" parent="1">
          <mxGeometry x="-10" y="40" width="20" height="40" as="geometry" />
        </mxCell>
        <mxCell id="r8qZKDxEqpIi0R-0CELh-14" value="" style="ellipse;whiteSpace=wrap;html=1;" vertex="1" parent="1">
          <mxGeometry x="15" y="40" width="20" height="40" as="geometry" />
        </mxCell>
        <mxCell id="r8qZKDxEqpIi0R-0CELh-15" value="" style="ellipse;whiteSpace=wrap;html=1;" vertex="1" parent="1">
          <mxGeometry x="40" y="40" width="20" height="40" as="geometry" />
        </mxCell>
        <mxCell id="r8qZKDxEqpIi0R-0CELh-19" value="&lt;div&gt;mqtt&lt;/div&gt;&lt;div&gt;broker&lt;br&gt;&lt;/div&gt;" style="shape=hexagon;perimeter=hexagonPerimeter2;whiteSpace=wrap;html=1;fixedSize=1;" vertex="1" parent="1">
          <mxGeometry x="370" y="192" width="80" height="44" as="geometry" />
        </mxCell>
      </root>
    </mxGraphModel>
  </diagram>
</mxfile>
